<svg width="73" height="24" viewBox="0 0 73 24" fill="none" xmlns="http://www.w3.org/2000/svg">
<path d="M36.84 4.60999C36.3292 4.099 35.7228 3.69364 35.0554 3.41708C34.3879 3.14052 33.6725 2.99817 32.95 2.99817C32.2275 2.99817 31.5121 3.14052 30.8446 3.41708C30.1772 3.69364 29.5708 4.099 29.06 4.60999L28 5.66999L26.94 4.60999C25.9083 3.5783 24.509 2.9987 23.05 2.9987C21.591 2.9987 20.1917 3.5783 19.16 4.60999C18.1283 5.64169 17.5487 7.04096 17.5487 8.49999C17.5487 9.95903 18.1283 11.3583 19.16 12.39L20.22 13.45L28 21.23L35.78 13.45L36.84 12.39C37.351 11.8792 37.7563 11.2728 38.0329 10.6053C38.3095 9.93789 38.4518 9.22248 38.4518 8.49999C38.4518 7.77751 38.3095 7.0621 38.0329 6.39464C37.7563 5.72718 37.351 5.12075 36.84 4.60999V4.60999Z" stroke="white" stroke-width="2" stroke-linecap="round" stroke-linejoin="round"/>
<path d="M52.416 17C52.3093 17 52.2187 16.968 52.144 16.904C52.08 16.8293 52.048 16.7387 52.048 16.632V7.672L49.392 9.72C49.3067 9.784 49.216 9.81067 49.12 9.8C49.024 9.78933 48.944 9.74133 48.88 9.656L48.464 9.128C48.4 9.032 48.3733 8.936 48.384 8.84C48.4053 8.744 48.4587 8.664 48.544 8.6L52.032 5.912C52.1067 5.85867 52.176 5.82667 52.24 5.816C52.304 5.80533 52.3733 5.8 52.448 5.8H53.264C53.3707 5.8 53.456 5.83733 53.52 5.912C53.584 5.976 53.616 6.06133 53.616 6.168V16.632C53.616 16.7387 53.584 16.8293 53.52 16.904C53.456 16.968 53.3707 17 53.264 17H52.416ZM55.9958 17C55.8891 17 55.7984 16.968 55.7238 16.904C55.6598 16.8293 55.6278 16.7387 55.6278 16.632V16.12C55.6278 16.024 55.6544 15.9173 55.7078 15.8C55.7611 15.6827 55.8678 15.5547 56.0278 15.416L59.4198 12.024C59.9638 11.5653 60.3904 11.176 60.6998 10.856C61.0198 10.5253 61.2438 10.2107 61.3718 9.912C61.5104 9.61333 61.5798 9.304 61.5798 8.984C61.5798 8.376 61.4091 7.896 61.0678 7.544C60.7264 7.18133 60.2198 7 59.5477 7C59.1211 7 58.7531 7.09067 58.4438 7.272C58.1344 7.44267 57.8891 7.68267 57.7078 7.992C57.5371 8.29067 57.4251 8.632 57.3718 9.016C57.3504 9.15467 57.2918 9.25067 57.1957 9.304C57.1104 9.35733 57.0304 9.384 56.9557 9.384H56.1238C56.0278 9.384 55.9478 9.35733 55.8838 9.304C55.8198 9.24 55.7878 9.16533 55.7878 9.08C55.7984 8.67467 55.8838 8.26933 56.0438 7.864C56.2038 7.448 56.4384 7.07467 56.7478 6.744C57.0678 6.41333 57.4571 6.14667 57.9158 5.944C58.3851 5.73067 58.9291 5.624 59.5477 5.624C60.3904 5.624 61.0784 5.77867 61.6118 6.088C62.1558 6.38667 62.5558 6.78667 62.8118 7.288C63.0678 7.78933 63.1958 8.33867 63.1958 8.936C63.1958 9.40533 63.1158 9.83733 62.9558 10.232C62.7958 10.616 62.5611 10.9947 62.2518 11.368C61.9531 11.7307 61.5798 12.104 61.1318 12.488L58.0598 15.608H63.0518C63.1691 15.608 63.2598 15.64 63.3238 15.704C63.3984 15.768 63.4358 15.8587 63.4358 15.976V16.632C63.4358 16.7387 63.3984 16.8293 63.3238 16.904C63.2598 16.968 63.1691 17 63.0518 17H55.9958Z" fill="white"/>
</svg>
